<?xml version="1.0" encoding="iso-8859-1"?>
<!-- Generator: Adobe Illustrator 21.0.0, SVG Export Plug-In . SVG Version: 6.00 Build 0)  -->
<svg xmlns="http://www.w3.org/2000/svg" xmlns:xlink="http://www.w3.org/1999/xlink" version="1.1" id="Capa_1" x="0px" y="0px" viewBox="0 0 512.507 512.507" style="enable-background:new 0 0 512.507 512.507;" xml:space="preserve" width="512" height="512">
<g id="XMLID_342_">
	<path id="XMLID_77_" style="fill:#82BAFF;" d="M365.113,46.535C336.427,16.526,297.767,0,256.253,0S176.08,16.526,147.394,46.535   c-28.686,30.009-43.453,69.375-41.582,110.847l9.964,220.842c3.396,75.299,65.102,134.283,140.478,134.283   s137.081-58.984,140.478-134.283l9.964-220.843C408.566,115.91,393.798,76.543,365.113,46.535z"/>
	<path id="XMLID_466_" style="fill:#4A98F7;" d="M365.113,46.535C336.427,16.526,297.767,0,256.253,0h0v512.507h0   c75.376,0,137.081-58.984,140.478-134.283l9.964-220.843C408.566,115.91,393.798,76.543,365.113,46.535z"/>
	<path id="XMLID_764_" style="fill:#E9EDF5;" d="M357.633,161.893c0,50.8-37.57,93-86.38,100.27c-4.9,0.73-9.9,1.11-15,1.11   s-10.1-0.38-15-1.11c-48.81-7.27-86.38-49.47-86.38-100.27s37.57-93,86.38-100.27c4.9-0.73,9.9-1.11,15-1.11s10.1,0.38,15,1.11   C320.063,68.893,357.633,111.093,357.633,161.893z"/>
	<path id="XMLID_810_" style="fill:#CDD2E1;" d="M271.253,61.623c-4.9-0.73-9.9-1.11-15-1.11h0v202.76h0c5.1,0,10.1-0.38,15-1.11   c48.81-7.27,86.38-49.47,86.38-100.27S320.063,68.893,271.253,61.623z"/>
	<path id="XMLID_81_" style="fill:#0B7FB2;" d="M256.253,427.55c-24.278,0-44.03-19.752-44.03-44.03s19.752-44.03,44.03-44.03   s44.03,19.751,44.03,44.03S280.532,427.55,256.253,427.55z M256.253,369.49c-7.736,0-14.03,6.294-14.03,14.03   c0,7.736,6.294,14.03,14.03,14.03s14.03-6.294,14.03-14.03C270.284,375.784,263.99,369.49,256.253,369.49z"/>
	<path id="XMLID_71_" style="fill:#DCE1EB;" d="M335.704,397.431c-8.284,0-15-6.716-15-15c0-35.538-28.912-64.45-64.45-64.45   s-64.45,28.912-64.45,64.45c0,8.284-6.716,15-15,15s-15-6.716-15-15c0-52.08,42.37-94.45,94.45-94.45s94.45,42.37,94.45,94.45   C350.704,390.715,343.988,397.431,335.704,397.431z"/>
	<line id="XMLID_67_" style="fill:#AABEEB;" x1="212.258" y1="158.782" x2="212.258" y2="160.289"/>
	<path id="XMLID_68_" style="fill:#9196AA;" d="M212.258,175.289c-8.284,0-15-6.716-15-15v-1.507c0-8.284,6.716-15,15-15   s15,6.716,15,15v1.507C227.258,168.573,220.542,175.289,212.258,175.289z"/>
	<line id="XMLID_65_" style="fill:#AABEEB;" x1="300.282" y1="158.782" x2="300.282" y2="160.289"/>
	<path id="XMLID_66_" style="fill:#707789;" d="M300.282,175.289c-8.284,0-15-6.716-15-15v-1.507c0-8.284,6.716-15,15-15   s15,6.716,15,15v1.507C315.282,168.573,308.567,175.289,300.282,175.289z"/>
	<path id="XMLID_747_" style="fill:#9196AA;" d="M271.253,247.223v14.94c-4.9,0.73-9.9,1.11-15,1.11s-10.1-0.38-15-1.11v-14.94   c0-8.28,6.72-15,15-15S271.253,238.943,271.253,247.223z"/>
	<path id="XMLID_754_" style="fill:#9196AA;" d="M271.253,61.623v11.77c0,8.28-6.72,15-15,15s-15-6.72-15-15v-11.77   c4.9-0.73,9.9-1.11,15-1.11S266.353,60.893,271.253,61.623z"/>
	<path id="XMLID_811_" style="fill:#707789;" d="M256.253,60.513L256.253,60.513l0,27.88h0c8.28,0,15-6.72,15-15v-11.77   C266.353,60.893,261.353,60.513,256.253,60.513z"/>
	<path id="XMLID_812_" style="fill:#707789;" d="M256.253,232.223L256.253,232.223l0,31.05h0c5.1,0,10.1-0.38,15-1.11v-14.94   C271.253,238.943,264.533,232.223,256.253,232.223z"/>
	<path id="XMLID_817_" style="fill:#AFB4C8;" d="M256.253,287.981L256.253,287.981l0,30h0c35.538,0,64.45,28.912,64.45,64.45   c0,8.284,6.716,15,15,15s15-6.716,15-15C350.704,330.351,308.333,287.981,256.253,287.981z"/>
	<path id="XMLID_827_" style="fill:#085584;" d="M256.253,339.49L256.253,339.49l0,30h0c7.736,0,14.03,6.294,14.03,14.03   c0,7.736-6.294,14.03-14.03,14.03h0v30h0c24.278,0,44.03-19.752,44.03-44.03S280.532,339.49,256.253,339.49z"/>
</g>















</svg>
