<?xml version="1.0" encoding="utf-8"?>
<!-- Generator: Adobe Illustrator 23.0.0, SVG Export Plug-In . SVG Version: 6.00 Build 0)  -->
<svg version="1.1" id="Layer_1" xmlns="http://www.w3.org/2000/svg" xmlns:xlink="http://www.w3.org/1999/xlink" x="0px" y="0px"
	 viewBox="0 0 512.7 304.3" style="enable-background:new 0 0 512.7 304.3;" xml:space="preserve">
<style type="text/css">
	.st0{fill:#FAA01B;}
	.st1{fill:#D15A42;}
	.st2{fill:#FF8742;}
	.st3{fill:#C4442A;}
	.st4{fill:#FD7629;}
	.st5{fill:#FE7944;}
	.st6{fill:#946013;}
	.st7{fill:#FFFFFF;}
	.st8{fill:#EDEDED;}
	.st9{fill:#E2E2E2;}
	.st10{fill:#F9F9F9;}
</style>
<g>
	<path class="st7" d="M39.7,95.1c0,0,45.4-62.2,136-48.9C175.7,46.2,105.2,37.9,39.7,95.1z"/>
	<g>
		<path class="st7" d="M216.8,152.4c-24.9-22.6-30.1-37.6-59.9-54.5c0.6,1.1,1.2,2.2,1.5,2.6c-7.9-2.4-16.3-5.7-24.9-7.3
			c-21.9-4.1-40.9,3.2-57.9,16.9c-15,12.1-21.6,28.2-22.7,47c-1.1,18.1,1.8,35.5,10.2,51.7c13.2,25.3,34.8,38.6,62.5,41.5
			c31.5,3.4,58.3-8.3,81.8-28.5c3.1-2.7,13.8-12.3,15.1-13.2c-1.6,2.2-6.7,7.9-7.9,9.3c-10.2,12.7-22.9,23.3-37.8,30
			c-18,8.2-37.7,10.6-57.3,7.6c-11.6-1.8-22.8-5.5-33.1-11.2c-6.1-3.4-11.8-7.3-17-11.9C53,218.4,41.6,199,36.8,177.9
			c-4.6-20.1-1.9-41.3,5.7-60.4c6.7-16.9,18.1-31.4,32.9-42c8.9-6.3,18.8-11.2,29-14.9c2.9-1.1,5.8-2.1,8.7-3.2c0.3,0,0.7,0,1,0
			c1.4,3.5,2.5,7.2,4.4,10.5c1.1,1.9,3.3,3.9,5.3,4.3c19.8,4.2,37.3,13.7,52.8,25.9c16.5,13,34.4,23.3,49.7,37.8
			c4.5,4.3-3.6-1.8,0.7,2.7C227,140.5,231.7,152.3,216.8,152.4z"/>
	</g>
	<g>
		<path class="st7" d="M299.5,141.9c-5.6-6.5-11.1-12.8-17.1-19.8c4-3.8,8-7.3,11.5-11.1c14.2-15.1,29.5-28.8,48-38.6
			c14.5-7.7,29.7-12.9,46.3-11.8c24.5,1.5,44.1,12.6,58.2,32.8c2.1,3.1,3.3,6.7,5.3,10.8c-4.4-6.7-9.5-11.1-11.4-11.1
			c12.1,20.1,11.5,27.6,13.9,33.8c-7.1-9-13.9-20.3-22.6-29.4c-9.9-10.5-22.4-17.3-37.5-14.7c-8.6,1.4-22.7,1.8-30.7,5.4
			c-26.3,11.8-43.2,31.2-62.6,52.5C300.5,141.1,300.1,141.3,299.5,141.9z"/>
	</g>
	<g>
		<path class="st8" d="M287.5,135.8c5.1-6.2,9.8-12.9,15.4-18.6c17.5-18,37.2-32.8,61.8-39.7c38.4-10.8,75.8,8.7,88,45.5
			c0.3,0.9,2.7,6.4,2.4,7.6c-4.2-7.7-7.8-12.6-10.6-16.5c-6-8.3-11.3-15.3-20.9-20.8c-11.7-6.8-24.6-8.9-38.8-8.1
			c-29.7,1.8-52.3,24.3-73.2,44.9c-5.3,5.2-10,11-15.2,16.7c-2.6-2.9-5.7-6.5-8.8-10C287.5,136.5,287.5,136.2,287.5,135.8z"/>
	</g>
	<g>
		<g>
			<path class="st9" d="M135.3,79.6C178.4,109,212.8,134.2,259,186c-15.2-20.2-33.9-43.9-52.2-61.3c-18.5-17.6-37.8-34.2-61.8-45.3
				c8.8-1,16.5,1.1,24,4.1c16.1,6.5,34,17.9,47.3,28.7c17.9,13.7,31.2,25.5,47.5,40.7c12.1,11.4,22.5,24.8,34.2,36.6
				c19.1,19.2,39.8,37,64.2,49.1c11.4,5.6,23.4,9.9,36.2,10.4c25.9,1,46.5-10.5,63.6-29.2c3.2-3.5,10.6-13.1,13.8-17.1
				c-6.9,23.2-17.3,33.6-34.3,46.4c-18.1,13.7-39.6,16.1-62.8,14.2c-19.4-1.6-37.5-8.9-54.5-18.4c-2.1-1.2-4.2-2.2-6.3-3.3
				c1,0.9,6.5,9.7,25.5,19.4c-27.7-7-56-27.5-79.1-43.3c14.7,14.2,56.4,45.9,110.1,57c-9.6-0.3-17.1,1.1-44.9-8
				c-34.6-10.8-63.7-32.1-88-58.3c-14.7-15.8-27.5-33.4-40.6-50.6C180.9,131.4,159,102.9,135.3,79.6z"/>
		</g>
	</g>
	<g>
		<path class="st8" d="M50.8,174.9c-0.6,7-1.1,12.9-1.6,18.2c-7.4-48.4,7.5-94,41.9-114.9c-29.6,39.4-43.8,73.5-20.5,137
			C70.3,215.3,55.8,185.9,50.8,174.9z"/>
	</g>
	<g>
		<path class="st10" d="M448.5,214.8c27.4-37.2,31.6-60.1,30.8-78c-2.2-45.9-32.9-75.9-70.7-84.4c-17-3.8-33,0-48,8.4
			c-22.1,12.4-40.4,29.4-56.4,48.8c-14.2,17.2-25.6,36.9-41.5,52.4c-10.9,10.7-22,21.1-33.4,31.3c-4.2,3.8-8.2,8-12.3,11.9
			c-4.6,4.5-9.4,8.9-14.8,12.5c-0.9,0.6-1.8,1.3-2.8,1.6c0.8-0.9,1.7-1.7,2.6-2.5c1-0.9,6.3-6.9,7.8-9.1c2.5-3.7,4.9-7.6,7.7-11.1
			c6.6-8.2,13-16.4,19.5-24.6c10.1-12.8,19.6-26,28.6-39.6c8.5-13,15-27.9,25.2-39.8c21.2-24.8,46.3-42.8,78.7-49.5
			c12.7-2.6,25.6-3.6,37.7-1.4c-10.5-1.2-22.5,2.8-22.5,3.3c11.4-0.6,18.6,0.6,22.4,1.3c30.3,6.2,57.5,26.1,69.6,54.9
			c6.1,14.4,9.4,30.2,8,45.8C482.8,169.7,472.2,192.9,448.5,214.8z"/>
	</g>
	<g>
		<path class="st8" d="M282.2,117.7c1.1-1.4,2.7-3.4,3.6-4.9c16.9-26.6,37.6-49.2,66.5-63c4.3-2.1,14.7-5.5,15.4-5.4
			c-36,15.6-62.4,44.9-82.2,77.8C283.3,119.4,283.4,119.9,282.2,117.7z"/>
	</g>
	<g>
		<g>
			<path class="st7" d="M210.8,200.6c-20.4,21.7-45.6,38.6-79.7,35.9c-25.6-2-44.1-15.5-56.4-37.7c-7.9-14.2-11.8-29.5-13.2-45.6
				c-1.6-18.5-0.5-36.6,6.1-54c11.3-29.7,33.3-47.2,64.3-52.8c42.9-7.6,79.9,6,113.3,32.3c20.2,15.9,35.2,36.3,50.1,56.8
				c13.1,18,25.3,36.7,38.2,54.9c18.2,25.7,41.8,45,71.1,57c0.3,0.1,2.1,1.1,2.1,1.4c-7.3,0.6-16.7-0.2-23.8-2.3
				c-34.5-10.3-62.6-31.9-86-58.8c-26-29.9-54-57.5-86.4-80.5c-12.9-9.2-25.2-19.1-40.5-24.1c-16-5.3-32.1-6.5-48.6-2.6
				c-21.7,5.1-36.4,18.4-43.5,39.3c-8,23.7-9.1,47.9,2.8,70.7c10,19.1,24.3,34.3,47.5,37.3c16.6,2.2,32.7,0,47.6-7.4
				C188.4,214.1,200.4,206.5,210.8,200.6z"/>
		</g>
	</g>
	<g>
		<g>
			<path class="st8" d="M210.8,200.6c-13.3,15-60.1,46.1-102.5,25.5c-23.7-12.9-36.6-34.5-40.3-61.3c-2.6-18.7-2.1-37.3,6-54.8
				c10.7-23,28.5-37.2,53.7-41.5c18.5-3.1,36.1,0.8,53.2,7.5c31.6,12.4,58,32.3,80.3,57.8c19.5,22.4,38.4,45.2,58.4,67.1
				c15.2,16.7,32.7,30.9,53.2,40.9c3.6,1.7,7.3,3.2,10.8,5.1c-13.5-3.3-26.1-9.1-38-16.1c-22-13.1-40.3-30.4-57-49.6
				c-29.1-33.5-61.6-63.2-100.4-85.5c-12.6-7.2-25.8-13.1-40.3-15.5c-30.6-5-61.8,12.7-71,42.3c-8.8,28.6-6.4,56.9,12.2,81.7
				c18,24,42.3,28.4,70.1,22.1C179.5,221.7,194.2,209.4,210.8,200.6z"/>
		</g>
	</g>
	<path class="st8" d="M318.4,223.8c0,0,64.2,65.4,130.4,9.7C448.8,233.5,389,297.1,318.4,223.8z"/>
	<path class="st8" d="M324.4,237.8c0,0,24.5,21.2,65.7,23.6C390.1,261.4,356.2,267.7,324.4,237.8z"/>
</g>
</svg>
