<?xml version="1.0" encoding="utf-8"?>
<!-- Generator: Adobe Illustrator 23.0.0, SVG Export Plug-In . SVG Version: 6.00 Build 0)  -->
<svg version="1.1" id="Layer_1" xmlns="http://www.w3.org/2000/svg" xmlns:xlink="http://www.w3.org/1999/xlink" x="0px" y="0px"
	 viewBox="0 0 1000 604.6" style="enable-background:new 0 0 1000 604.6;" xml:space="preserve">
<style type="text/css">
	.st0{fill:url(#SVGID_1_);}
	.st1{fill:url(#SVGID_2_);}
	.st2{fill:url(#SVGID_3_);}
	.st3{fill:url(#SVGID_4_);}
	.st4{fill:url(#SVGID_5_);}
</style>
<g>
	<linearGradient id="SVGID_1_" gradientUnits="userSpaceOnUse" x1="165.23" y1="231.1956" x2="287.4485" y2="231.1956">
		<stop  offset="5.405410e-03" style="stop-color:#FCBF12"/>
		<stop  offset="1" style="stop-color:#F0592B"/>
	</linearGradient>
	<path class="st0" d="M165.2,218.1c0,0,57.7-4.4,104.5,65.1l17.7-55.5l-110.1-48.4L165.2,218.1z"/>
	<g>
		
			<linearGradient id="SVGID_2_" gradientUnits="userSpaceOnUse" x1="-229.9386" y1="-666.3469" x2="-181.4091" y2="-419.1043" gradientTransform="matrix(-0.9938 0.1113 0.1272 1.1355 93.751 931.6666)">
			<stop  offset="5.405410e-03" style="stop-color:#FCBF12"/>
			<stop  offset="1" style="stop-color:#F0592B"/>
		</linearGradient>
		<path class="st1" d="M154.9,140.6c1,0,2,0.1,3,0.1c15.6,1.1,30.6,8.3,43.9,18.1c22.5,16.5,41.5,38.4,61.1,58.9
			c14,14.6,28.7,29,44.4,41.3c27.8,21.7,57.9,49.4,93.3,38.2c15.9-5.1,23.1,38.1-41.8,28.9c-28.8-4.1-49-27.7-70.8-46.7
			c-22.8-19.9-46.6-40.1-73.8-52.1c-21.6-9.5-46-13.2-67.8-5.3c-11.1,4-21.4,11.1-28.4,21.2c-14.6,21-12.7,51.2-3.9,76.2
			c12.9,36.7,39.4,67.6,72.1,84.2c32.6,16.6,70,15.9,104.5,6.1c27.8-7.9,58.4-18.7,48.5-9.9c-83,72.6-216.3,29.5-268.8-57.8
			c-1.4-2.3-2.8-4.7-4-7.2c-24-46.5-23.6-98.6-3.4-147.5c2.1-5.1,4.5-10.1,7.3-14.8C84.2,148.5,128.8,140.1,154.9,140.6z"/>
	</g>
	
		<linearGradient id="SVGID_3_" gradientUnits="userSpaceOnUse" x1="428.8919" y1="381.6981" x2="-52.6999" y2="334.4293" gradientTransform="matrix(-0.998 -6.372111e-02 6.372111e-02 -0.998 870.8322 629.0389)">
		<stop  offset="5.405410e-03" style="stop-color:#FCBF12"/>
		<stop  offset="1" style="stop-color:#F0592B"/>
	</linearGradient>
	<path class="st2" d="M450.9,329.8C471.8,358.7,585.8,502,770,468.7c0,0,172.9-24.6,177.3-200.3c0,0,10.3-144.4-132-205.4
		c-0.1,0-0.2-0.1-0.4-0.1c-6.9-2.2-203.2-63.5-326.6,159.4c-1.3,2.4-0.5,5.4,1.7,6.8c3,1.9,5.4-0.5,7.7-2.5
		c6-5.2,12.1-10.3,18.3-15.2c6.2-4.9,12.5-9.7,18.9-14.4c6.4-4.6,12.9-9.2,19.5-13.5c0.5-0.3,1-0.7,1.5-1
		c67.8-44.6,147.3-84.5,225.4-37.4c32.1,19.4,59.1,52.2,65.9,89.6c9.6,52.3-16.4,106.3-62.1,132.7c-80.5,46.7-193.3,13.7-269.9-25.2
		c-15.4-7.8-30.6-16.3-44.9-26c-1.3-0.9-3-1-4.4-0.3l-13.3,6.3C450,323.5,449,327.2,450.9,329.8z"/>
	
		<linearGradient id="SVGID_4_" gradientUnits="userSpaceOnUse" x1="83.4419" y1="343.4937" x2="1017.8704" y2="343.4937" gradientTransform="matrix(1 -5.794628e-03 -5.794628e-03 -1 -48.3747 650.4365)">
		<stop  offset="0" style="stop-color:#F6935E"/>
		<stop  offset="1" style="stop-color:#ED3025"/>
	</linearGradient>
	<path class="st3" d="M967.2,286.2C961.8,436,831.6,546.4,696.3,569.1c-146.3,24.4-267.5-60.6-351.7-176.3
		c-11.6-15.9-22.8-32.2-33.7-48.7c-18.8-28.1-36.9-56.8-55.5-85c-5.2-7.9-10.8-16.7-16.8-25.8c-29.6-44.9-69.4-96.8-124.9-82.5
		c-22.5,5.8-37.9,19.8-47.6,38c-21,39.1-15.4,97.5,3.2,133.9c0.2,0.5,0.5,0.9,0.8,1.4c0.1,0.2,0.2,0.3,0.3,0.5
		c7.9,14.3,17.4,27.3,27.8,39.5c0.8,1,1.6,1.9,2.4,2.9c6.9,7.9,19.2,27.8,17.4,24.7c-33.8-18.6-57.3-52.1-72.5-89.7
		C2.1,194.6,72.2,46.9,199.2,53.4c112.2,5.8,170.2,141.8,233.3,216.8c43.3,51.5,91.7,97.6,150.8,130.5c33.2,18.5,69.1,32.2,106.6,39
		c93.9,17.1,199-29.5,227.9-125.3c11.4-37.7,10-79.3-5.1-115.6c-16-38.3-42-71.8-73.7-96.7c-34.3-26.8-76-42.7-118.5-46.5
		c-23.4-2.1-47.3-0.5-70.3,4.7c-10.7,2.4-21.2,5.7-31.5,9.7c-0.9,0.3-1.7,0.7-2.6,1c-3.7,1.5-7.4,3.2-11.1,4.9
		c0.4-1,1.3-1.7,2.2-2.3c7.5-5,15.3-9.4,23.2-13.7c38.6-21.1,82.7-30.4,125.8-27.4c27.1,1.9,53.9,8.7,78.6,20.6
		c67.2,32.5,113.8,100.9,128,175.7C966.5,247.8,967.9,267.1,967.2,286.2z"/>
	
		<linearGradient id="SVGID_5_" gradientUnits="userSpaceOnUse" x1="70.5997" y1="310.2435" x2="978.7548" y2="310.2435" gradientTransform="matrix(0.9985 5.559176e-02 5.559176e-02 -0.9985 -52.3602 621.0334)">
		<stop  offset="0" style="stop-color:#F67724"/>
		<stop  offset="1" style="stop-color:#BE1E2D"/>
	</linearGradient>
	<path class="st4" d="M940.6,392.4c-1,1.3-11.9,14.1-17.2,19.7c-9.5,9.7-20.5,18.5-29.1,25.7c-39.6,33.2-86.5,55.7-135.7,64.8
		c-39.7,7.4-80.1,6.7-119.5-0.9c-34.5-6.5-68.1-18.3-99.5-34.5c-61.3-31.4-110.9-81.8-153.5-137.8c-2.8-3.6-5.5-7.3-8.2-10.9
		c-1.7-2.2-3.3-4.5-4.9-6.7c-2.1-2.9-4.1-5.8-6.2-8.8c-0.5-0.6-0.9-1.3-1.4-2c-3.1-4.4-6.1-8.9-9-13.5c-7.2-11-14.3-22.4-21.4-33.9
		c-20.6-33.3-41-67.1-66.6-96.9c-23.3-27-49.6-52.1-86.2-57.6c-41.9-6.3-84.7,14.3-110.7,46.8c-16.8,21-27.5,47.2-30.5,74.6
		c-2.5,22.2-1.6,45,3.5,66.7c9.1,39,32.1,72.8,62.7,98.3c3.6,3,7.3,5.7,10.9,8.6c3.5,2.8,8.8,5.5,11.8,8.8
		c-22.2-25.1-46.7-52.6-61.5-82.9C49,280.2,48,231.1,67.2,191.1c4-8.3,9-16,15.4-22.6c25.6-26.7,65.3-22.8,94.2-4.3
		c26.7,17.1,46.5,43.5,61.9,70.7c0.1,0.1,0.5,0.7,1.1,1.8c0.1,0.2,0.3,0.5,0.5,0.7c0.2,0.3,0.3,0.5,0.6,0.8
		c5.4,8.7,20.9,33.1,41.2,63.8c1.1,1.8,2.3,3.5,3.5,5.3c4.4,6.7,9.1,13.7,14,20.8c1.9,2.8,3.8,5.6,5.8,8.5c0.3,0.4,0.6,0.9,0.9,1.3
		c6.4,9.4,13.1,19,19.8,28.5c4.1,5.8,8.2,11.5,12.3,17.2c27.2,37.7,55.3,73.6,77.4,95c4.6,4.4,8.8,8.1,12.8,11.2c0,0,0,0,0.1,0.1
		c0,0,0.1,0.1,0.2,0.2c3.9,3.8,47.5,45.1,118.4,68.1c45.5,14.8,94.7,18.7,142,11.9c84.9-12.2,170.9-60,221.9-129.3
		C922.5,425.5,929.6,407.3,940.6,392.4z"/>
</g>
</svg>
