<?xml version="1.0" encoding="utf-8"?>
<!-- Generator: Adobe Illustrator 23.0.0, SVG Export Plug-In . SVG Version: 6.00 Build 0)  -->
<svg version="1.1" xmlns="http://www.w3.org/2000/svg" xmlns:xlink="http://www.w3.org/1999/xlink" x="0px" y="0px"
	 viewBox="0 0 1137.7 280.4" style="enable-background:new 0 0 1137.7 280.4;" xml:space="preserve">
<style type="text/css">
	.st0{fill:url(#SVGID_1_);}
	.st1{fill:url(#SVGID_2_);}
	.st2{fill:url(#SVGID_3_);}
	.st3{fill:url(#SVGID_4_);}
	.st4{fill:url(#SVGID_5_);}
	.st5{fill:url(#SVGID_6_);}
	.st6{fill:url(#SVGID_7_);}
	.st7{fill:url(#SVGID_8_);}
	.st8{fill:url(#SVGID_9_);}
	.st9{fill:url(#SVGID_10_);}
	.st10{fill:url(#SVGID_11_);}
	.st11{fill:url(#SVGID_12_);}
	.st12{fill:url(#SVGID_13_);}
	.st13{fill:url(#SVGID_14_);}
	.st14{fill:url(#SVGID_15_);}
	.st15{fill:url(#SVGID_16_);}
	.st16{fill:url(#SVGID_17_);}
	.st17{fill:url(#SVGID_18_);}
	.st18{fill:#D2D2D2;}
	.st19{fill:#ADADAD;}
	.st20{fill:url(#SVGID_19_);}
	.st21{fill:url(#SVGID_20_);}
	.st22{fill:url(#SVGID_21_);}
	.st23{fill:url(#SVGID_22_);}
	.st24{fill:url(#SVGID_23_);}
</style>
<g id="Layer_1">
</g>
<g id="Layer_2">
</g>
<g id="Layer_3">
	<g>
		<linearGradient id="SVGID_1_" gradientUnits="userSpaceOnUse" x1="82.87" y1="110.0363" x2="134.4553" y2="110.0363">
			<stop  offset="5.405410e-03" style="stop-color:#FCBF12"/>
			<stop  offset="1" style="stop-color:#F0592B"/>
		</linearGradient>
		<path class="st0" d="M82.9,104.5c0,0,24.4-1.9,44.1,27.5l7.5-23.4L88,88.1L82.9,104.5z"/>
		<g>
			
				<linearGradient id="SVGID_2_" gradientUnits="userSpaceOnUse" x1="-6676.8936" y1="-441.5529" x2="-6656.4102" y2="-337.1982" gradientTransform="matrix(-0.9938 0.1113 0.1272 1.1355 -6465.8643 1320.1188)">
				<stop  offset="5.405410e-03" style="stop-color:#FCBF12"/>
				<stop  offset="1" style="stop-color:#F0592B"/>
			</linearGradient>
			<path class="st1" d="M78.5,71.8c0.4,0,0.8,0,1.3,0.1c6.6,0.5,12.9,3.5,18.5,7.6c9.5,7,17.5,16.2,25.8,24.9
				c5.9,6.2,12.1,12.2,18.7,17.4c11.7,9.2,24.4,20.8,39.4,16.1c6.7-2.1,9.7,16.1-17.7,12.2c-12.2-1.7-20.7-11.7-29.9-19.7
				c-9.6-8.4-19.7-16.9-31.2-22c-9.1-4-19.4-5.6-28.6-2.2c-4.7,1.7-9,4.7-12,8.9c-6.2,8.9-5.4,21.6-1.6,32.2
				c5.4,15.5,16.6,28.5,30.4,35.5c13.8,7,29.6,6.7,44.1,2.6c11.7-3.3,24.7-7.9,20.5-4.2c-35,30.7-91.3,12.4-113.4-24.4
				c-0.6-1-1.2-2-1.7-3c-10.1-19.6-10-41.6-1.4-62.2c0.9-2.2,1.9-4.3,3.1-6.2C48.7,75.1,67.5,71.6,78.5,71.8z"/>
		</g>
		
			<linearGradient id="SVGID_3_" gradientUnits="userSpaceOnUse" x1="-5910.6436" y1="378.9213" x2="-6113.9111" y2="358.9704" gradientTransform="matrix(-0.998 -6.372111e-02 6.372111e-02 -0.998 -5712.481 107.1616)">
			<stop  offset="5.405410e-03" style="stop-color:#FCBF12"/>
			<stop  offset="1" style="stop-color:#F0592B"/>
		</linearGradient>
		<path class="st2" d="M203.4,151.6c8.8,12.2,56.9,72.7,134.7,58.6c0,0,73-10.4,74.8-84.6c0,0,4.4-61-55.7-86.7
			c-0.1,0-0.1,0-0.2-0.1c-2.9-0.9-85.8-26.8-137.8,67.3c-0.6,1-0.2,2.3,0.7,2.9c1.3,0.8,2.3-0.2,3.2-1.1c2.6-2.2,5.1-4.3,7.7-6.4
			c2.6-2.1,5.3-4.1,8-6.1c2.7-2,5.4-3.9,8.2-5.7c0.2-0.1,0.4-0.3,0.6-0.4c28.6-18.8,62.2-35.7,95.1-15.8c13.6,8.2,24.9,22,27.8,37.8
			c4.1,22.1-6.9,44.8-26.2,56c-34,19.7-81.6,5.8-113.9-10.6c-6.5-3.3-12.9-6.9-19-11c-0.6-0.4-1.3-0.4-1.9-0.1l-5.6,2.7
			C203,149,202.7,150.6,203.4,151.6z"/>
		
			<linearGradient id="SVGID_4_" gradientUnits="userSpaceOnUse" x1="77.4526" y1="177.1496" x2="471.8507" y2="177.1496" gradientTransform="matrix(1 -5.794628e-03 -5.794628e-03 -1 -49.3339 319.401)">
			<stop  offset="0" style="stop-color:#F6935E"/>
			<stop  offset="1" style="stop-color:#ED3025"/>
		</linearGradient>
		<path class="st3" d="M421.3,133.2c-2.3,63.2-57.2,109.8-114.3,119.4c-61.7,10.3-112.9-25.6-148.4-74.4
			c-4.9-6.7-9.6-13.6-14.2-20.5c-7.9-11.9-15.6-24-23.4-35.9c-2.2-3.3-4.5-7.1-7.1-10.9c-12.5-19-29.3-40.9-52.7-34.8
			c-9.5,2.4-16,8.4-20.1,16c-8.8,16.5-6.5,41.1,1.4,56.5c0.1,0.2,0.2,0.4,0.3,0.6c0,0.1,0.1,0.1,0.1,0.2c3.3,6,7.3,11.5,11.7,16.7
			c0.3,0.4,0.7,0.8,1,1.2c2.9,3.3,8.1,11.7,7.3,10.4c-14.3-7.9-24.2-22-30.6-37.9C14,94.6,43.6,32.2,97.2,35
			c47.3,2.4,71.9,59.9,98.5,91.5c18.3,21.7,38.7,41.2,63.7,55.1c14,7.8,29.2,13.6,45,16.5c39.6,7.2,84-12.5,96.2-52.9
			c4.8-15.9,4.2-33.5-2.2-48.8c-6.7-16.2-17.7-30.3-31.1-40.8c-14.5-11.3-32.1-18-50-19.6c-9.9-0.9-19.9-0.2-29.7,2
			c-4.5,1-9,2.4-13.3,4.1c-0.4,0.1-0.7,0.3-1.1,0.4c-1.6,0.6-3.1,1.4-4.7,2.1c0.2-0.4,0.6-0.7,0.9-1c3.2-2.1,6.5-4,9.8-5.8
			c16.3-8.9,34.9-12.8,53.1-11.6c11.4,0.8,22.8,3.7,33.2,8.7c28.4,13.7,48,42.6,54,74.1C421.1,117.1,421.6,125.2,421.3,133.2z"/>
		
			<linearGradient id="SVGID_5_" gradientUnits="userSpaceOnUse" x1="57.4289" y1="351.0557" x2="440.7377" y2="351.0557" gradientTransform="matrix(0.9985 5.559176e-02 5.559176e-02 -0.9985 -48.7933 492.8103)">
			<stop  offset="0" style="stop-color:#F67724"/>
			<stop  offset="1" style="stop-color:#BE1E2D"/>
		</linearGradient>
		<path class="st4" d="M410.2,178.1c-0.4,0.6-5,6-7.3,8.3c-4,4.1-8.6,7.8-12.3,10.8c-16.7,14-36.5,23.5-57.3,27.4
			c-16.7,3.1-33.8,2.8-50.4-0.4c-14.5-2.8-28.7-7.7-42-14.5c-25.9-13.3-46.8-34.5-64.8-58.2c-1.2-1.5-2.3-3.1-3.5-4.6
			c-0.7-0.9-1.4-1.9-2.1-2.8c-0.9-1.2-1.8-2.5-2.6-3.7c-0.2-0.3-0.4-0.6-0.6-0.8c-1.3-1.9-2.6-3.8-3.8-5.7c-3.1-4.7-6.1-9.5-9-14.3
			c-8.7-14.1-17.3-28.3-28.1-40.9c-9.8-11.4-20.9-22-36.4-24.3c-17.7-2.7-35.7,6-46.7,19.8c-7.1,8.9-11.6,19.9-12.9,31.5
			c-1.1,9.4-0.7,19,1.5,28.1c3.8,16.4,13.6,30.7,26.5,41.5c1.5,1.3,3.1,2.4,4.6,3.6c1.5,1.2,3.7,2.3,5,3.7
			c-9.4-10.6-19.7-22.2-26-35c-8.2-16.8-8.6-37.5-0.5-54.4c1.7-3.5,3.8-6.8,6.5-9.6c10.8-11.3,27.6-9.6,39.8-1.8
			c11.2,7.2,19.6,18.3,26.1,29.8c0,0.1,0.2,0.3,0.5,0.7c0.1,0.1,0.1,0.2,0.2,0.3c0.1,0.1,0.1,0.2,0.2,0.4c2.3,3.7,8.8,14,17.4,26.9
			c0.5,0.7,1,1.5,1.5,2.2c1.9,2.8,3.9,5.8,5.9,8.8c0.8,1.2,1.6,2.4,2.4,3.6c0.1,0.2,0.3,0.4,0.4,0.6c2.7,4,5.5,8,8.4,12
			c1.7,2.4,3.5,4.9,5.2,7.3c11.5,15.9,23.3,31.1,32.7,40.1c1.9,1.8,3.7,3.4,5.4,4.7c0,0,0,0,0.1,0.1c0,0,0,0,0.1,0.1
			c1.6,1.6,20,19,50,28.7c19.2,6.2,40,7.9,59.9,5c35.8-5.2,72.1-25.3,93.7-54.6C402.5,192.1,405.5,184.4,410.2,178.1z"/>
	</g>
	<g>
		<path class="st18" d="M553.4,94.3c0,3.7-0.5,7.1-1.4,10c-0.9,2.9-2.2,5.5-3.7,7.8c-1.6,2.2-3.4,4.2-5.4,5.7
			c-2.1,1.6-4.2,2.9-6.4,3.9c-2.2,1-4.5,1.8-6.8,2.2c-2.3,0.5-4.4,0.7-6.4,0.7l34.1,29.4H532l-34-29.4h-11.7v-16.3h36.9
			c2-0.2,3.9-0.6,5.6-1.3c1.7-0.7,3.2-1.6,4.4-2.8c1.2-1.2,2.2-2.6,2.9-4.2c0.7-1.7,1-3.5,1-5.7V84c0-0.9-0.1-1.6-0.3-2.1
			c-0.2-0.5-0.5-0.8-0.9-1.1c-0.4-0.2-0.7-0.4-1.1-0.4c-0.4,0-0.8-0.1-1.1-0.1h-53.9v73.7h-16.3V72.3c0-1.1,0.2-2.2,0.6-3.2
			c0.4-1,1-1.9,1.7-2.6c0.7-0.8,1.6-1.3,2.6-1.8c1-0.4,2.1-0.6,3.3-0.6h62c3.6,0,6.7,0.7,9.2,2s4.6,3,6.1,5c1.6,2,2.7,4.1,3.4,6.4
			c0.7,2.3,1,4.5,1,6.5V94.3z"/>
		<path class="st18" d="M651.2,154.1h-58.9c-2.3,0-4.7-0.4-7.4-1.2c-2.7-0.8-5.2-2.1-7.4-3.9c-2.3-1.8-4.2-4.2-5.7-7.1
			c-1.5-2.9-2.3-6.5-2.3-10.7V72.3c0-1.1,0.2-2.2,0.6-3.2c0.4-1,1-1.9,1.7-2.6c0.7-0.8,1.6-1.3,2.6-1.8c1-0.4,2.1-0.6,3.3-0.6h73.5
			v16.3h-65.4v50.8c0,2.1,0.6,3.8,1.7,4.9c1.1,1.1,2.8,1.7,5,1.7h58.8V154.1z M643.8,117.3h-51.6v-16.5h51.6V117.3z"/>
		<path class="st18" d="M756.6,101.8c0,3.7-0.5,7.1-1.4,10c-0.9,2.9-2.2,5.5-3.7,7.8c-1.6,2.2-3.4,4.2-5.4,5.7
			c-2.1,1.6-4.2,2.9-6.4,3.9c-2.2,1-4.5,1.7-6.8,2.2c-2.3,0.5-4.4,0.7-6.4,0.7h-36.9v-16.3h36.9c2.1-0.2,4-0.6,5.7-1.3
			c1.7-0.7,3.1-1.6,4.4-2.8c1.2-1.2,2.2-2.6,2.8-4.2c0.7-1.7,1-3.5,1-5.6v-7.4c-0.2-2-0.6-3.9-1.3-5.7c-0.7-1.7-1.6-3.2-2.7-4.4
			c-1.2-1.2-2.5-2.2-4.2-2.9s-3.5-1-5.7-1h-36.8c-2.2,0-3.8,0.6-5,1.7c-1.1,1.1-1.7,2.8-1.7,4.9v67.1h-16.3V87
			c0-4.2,0.8-7.7,2.3-10.7c1.5-2.9,3.4-5.3,5.7-7.1c2.3-1.8,4.8-3.1,7.4-3.9c2.7-0.8,5.1-1.2,7.4-1.2h36.9c3.7,0,7,0.5,9.9,1.4
			c2.9,0.9,5.5,2.2,7.8,3.8c2.2,1.6,4.1,3.4,5.7,5.4c1.6,2.1,2.9,4.2,3.9,6.4c1,2.2,1.8,4.5,2.2,6.8c0.5,2.3,0.7,4.4,0.7,6.4V101.8z
			"/>
		<path class="st18" d="M852,154.1h-58.9c-2.3,0-4.7-0.4-7.4-1.2c-2.7-0.8-5.2-2.1-7.4-3.9c-2.3-1.8-4.2-4.2-5.7-7.1
			c-1.5-2.9-2.3-6.5-2.3-10.7V72.3c0-1.1,0.2-2.2,0.6-3.2c0.4-1,1-1.9,1.7-2.6c0.7-0.8,1.6-1.3,2.6-1.8c1-0.4,2.1-0.6,3.3-0.6H852
			v16.3h-65.4v50.8c0,2.1,0.6,3.8,1.7,4.9c1.1,1.1,2.8,1.7,5,1.7H852V154.1z M844.6,117.3h-51.6v-16.5h51.6V117.3z"/>
		<path class="st18" d="M957.7,94.3c0,3.7-0.5,7.1-1.4,10c-0.9,2.9-2.2,5.5-3.7,7.8c-1.6,2.2-3.4,4.2-5.4,5.7
			c-2.1,1.6-4.2,2.9-6.4,3.9c-2.2,1-4.5,1.8-6.8,2.2c-2.3,0.5-4.4,0.7-6.4,0.7l34.1,29.4h-25.2l-34-29.4h-11.7v-16.3h36.9
			c2-0.2,3.9-0.6,5.6-1.3c1.7-0.7,3.2-1.6,4.4-2.8c1.2-1.2,2.2-2.6,2.9-4.2c0.7-1.7,1-3.5,1-5.7V84c0-0.9-0.1-1.6-0.3-2.1
			c-0.2-0.5-0.5-0.8-0.9-1.1c-0.4-0.2-0.7-0.4-1.1-0.4c-0.4,0-0.8-0.1-1.1-0.1H884v73.7h-16.3V72.3c0-1.1,0.2-2.2,0.6-3.2
			c0.4-1,1-1.9,1.7-2.6c0.7-0.8,1.6-1.3,2.6-1.8c1-0.4,2.1-0.6,3.3-0.6h62c3.6,0,6.7,0.7,9.2,2s4.6,3,6.1,5c1.6,2,2.7,4.1,3.4,6.4
			c0.7,2.3,1,4.5,1,6.5V94.3z"/>
		<path class="st18" d="M990.5,154.1h-16.3v-90h16.3V154.1z"/>
		<path class="st18" d="M1104.1,117.7c0,5.5-0.9,10.5-2.8,15.1c-1.9,4.6-4.5,8.6-7.8,11.9c-3.3,3.3-7.3,6-11.9,7.8s-9.6,2.8-15,2.8
			h-22.1c-5.4,0-10.4-0.9-15-2.8c-4.6-1.9-8.6-4.5-11.9-7.8c-3.3-3.3-6-7.3-7.9-11.9c-1.9-4.6-2.9-9.6-2.9-15.1v-17.2
			c0-5.4,1-10.5,2.9-15.1c1.9-4.6,4.5-8.6,7.9-11.9c3.3-3.3,7.3-5.9,11.9-7.8c4.6-1.9,9.6-2.8,15-2.8h22.1c5.4,0,10.4,0.9,15,2.8
			c4.6,1.9,8.5,4.5,11.9,7.8c3.3,3.3,6,7.3,7.8,11.9c1.9,4.6,2.8,9.7,2.8,15.1V117.7z M1087.8,100.5c0-3.2-0.5-6.1-1.5-8.8
			c-1-2.6-2.5-4.9-4.3-6.7c-1.9-1.9-4.1-3.3-6.7-4.3s-5.5-1.5-8.6-1.5h-22.1c-3.2,0-6.1,0.5-8.7,1.5c-2.6,1-4.9,2.5-6.8,4.3
			c-1.9,1.9-3.3,4.1-4.4,6.7c-1,2.6-1.5,5.5-1.5,8.8v17.2c0,3.2,0.5,6.1,1.5,8.8c1,2.6,2.5,4.9,4.4,6.7s4.1,3.3,6.8,4.3
			c2.6,1,5.5,1.5,8.7,1.5h22c3.2,0,6.1-0.5,8.7-1.5c2.6-1,4.9-2.5,6.8-4.3s3.3-4.1,4.4-6.7c1-2.6,1.5-5.5,1.5-8.8V100.5z"/>
	</g>
	<g>
		<path class="st19" d="M479.4,191.1c0.7,0,1.3,0.1,1.7,0.3c0.4,0.2,0.8,0.4,1,0.7c0.3,0.3,0.4,0.7,0.5,1c0.1,0.4,0.1,0.8,0.1,1.2
			v3.1H482c0-1.6-0.4-2.8-1.3-3.6c-0.9-0.8-2.1-1.1-3.7-1.1h-6.4v10.9h9v1.6h-9v12.9H467V196c0-1.2-0.2-2.2-0.5-3
			c-0.3-0.8-1.1-1.1-2.3-1.1h-0.8v-0.8H479.4z"/>
		<path class="st19" d="M487.4,203.8c0-1.2-0.2-2.2-0.5-3c-0.3-0.8-1.1-1.1-2.3-1.1h-0.4v-0.8h3.2c1,0,1.8,0.2,2.3,0.5
			c0.5,0.3,0.9,0.8,1.1,1.4h0.2c0.4-0.5,1-1,1.8-1.5s1.8-0.7,3-0.7c0.4,0,0.8,0,1.3,0.1c0.5,0.1,0.8,0.3,1.1,0.5
			c0.3,0.2,0.5,0.5,0.8,0.8c0.2,0.3,0.4,0.7,0.6,1.1l-1.6,1.2c-0.3-0.4-0.7-0.7-1.3-0.9c-0.6-0.2-1.2-0.3-1.9-0.3
			c-0.8,0-1.5,0.2-2.2,0.6c-0.7,0.4-1.2,0.9-1.6,1.5v15.2h-3.6V203.8z"/>
		<path class="st19" d="M501.8,208.6c0-1.4,0.2-2.7,0.6-3.9c0.4-1.2,1-2.3,1.7-3.2c0.8-0.9,1.7-1.6,2.8-2.2c1.1-0.5,2.3-0.8,3.7-0.8
			c1.4,0,2.6,0.3,3.7,0.8s2,1.3,2.8,2.2c0.8,0.9,1.3,2,1.7,3.2c0.4,1.2,0.6,2.5,0.6,3.9c0,1.4-0.2,2.7-0.6,3.9
			c-0.4,1.2-1,2.3-1.7,3.2s-1.7,1.6-2.8,2.2c-1.1,0.5-2.3,0.8-3.7,0.8c-1.4,0-2.7-0.3-3.7-0.8c-1.1-0.5-2-1.3-2.8-2.2
			c-0.8-0.9-1.3-2-1.7-3.2S501.8,209.9,501.8,208.6z M515.6,208.6c0-1.2-0.1-2.3-0.4-3.3c-0.2-1-0.6-1.9-1-2.7
			c-0.4-0.8-1-1.3-1.6-1.8c-0.6-0.4-1.3-0.7-2-0.7c-0.7,0-1.4,0.2-2,0.7c-0.6,0.4-1.1,1-1.6,1.8c-0.4,0.8-0.8,1.6-1,2.7
			c-0.2,1-0.4,2.1-0.4,3.3s0.1,2.3,0.4,3.3c0.2,1,0.6,1.9,1,2.7c0.4,0.8,1,1.3,1.6,1.8c0.6,0.4,1.3,0.7,2,0.7c0.7,0,1.4-0.2,2-0.7
			c0.6-0.4,1.1-1,1.6-1.8c0.4-0.8,0.8-1.6,1-2.7C515.5,210.8,515.6,209.7,515.6,208.6z"/>
		<path class="st19" d="M528.6,200.5c0.5-0.5,1.2-1,2.1-1.4c0.9-0.4,1.9-0.6,3.1-0.6c1,0,1.9,0.2,2.8,0.6c0.8,0.4,1.5,1.1,2,2.3
			c0.7-0.9,1.6-1.6,2.7-2.1c1.1-0.5,2.2-0.7,3.3-0.7c0.7,0,1.5,0.1,2.1,0.3c0.7,0.2,1.3,0.6,1.8,1.2c0.5,0.6,0.9,1.3,1.2,2.3
			c0.3,1,0.5,2.2,0.5,3.7v12.3h-3.6v-12.3c0-2.1-0.3-3.5-0.8-4.3c-0.6-0.8-1.3-1.2-2.4-1.2c-0.4,0-0.8,0.1-1.2,0.2
			c-0.4,0.2-0.8,0.4-1.2,0.6c-0.4,0.3-0.7,0.5-1,0.9c-0.3,0.3-0.6,0.6-0.8,0.9c0.1,0.3,0.2,0.8,0.2,1.4c0,0.6,0,1.1,0,1.5v12.3h-3.6
			v-12.3c0-2.1-0.3-3.5-0.8-4.3c-0.6-0.8-1.3-1.2-2.4-1.2c-0.8,0-1.5,0.2-2.2,0.7s-1.3,0.9-1.8,1.5v15.7H525v-14.4
			c0-1.2-0.2-2.2-0.5-3c-0.3-0.8-1.1-1.1-2.3-1.1h-0.8v-0.8h3.6c1,0,1.8,0.1,2.3,0.4c0.5,0.3,0.9,0.7,1.1,1.2H528.6z"/>
		<path class="st19" d="M567.1,191.1h3.6v22.2c0,1.2,0.2,2.2,0.5,3c0.3,0.8,1.1,1.1,2.3,1.1h0.8v0.8h-3.6c-0.7,0-1.3-0.1-1.7-0.2
			c-0.5-0.1-0.8-0.4-1.1-0.7c-0.3-0.4-0.5-0.9-0.6-1.5c-0.1-0.6-0.2-1.5-0.2-2.5V191.1z"/>
		<path class="st19" d="M578.7,203.8c0-1.2-0.2-2.2-0.5-3c-0.3-0.8-1.1-1.1-2.3-1.1h-0.8v-0.8h3.6c1,0,1.8,0.1,2.3,0.4
			c0.5,0.3,0.9,0.7,1.1,1.2h0.2c0.5-0.5,1.2-1,2.1-1.4c0.9-0.4,1.9-0.6,3.1-0.6c0.9,0,1.7,0.1,2.5,0.3c0.8,0.2,1.5,0.6,2.2,1.2
			c0.6,0.6,1.2,1.3,1.5,2.3c0.4,1,0.6,2.2,0.6,3.7v12.3h-3.6v-12.3c0-1-0.1-1.9-0.4-2.6c-0.3-0.7-0.6-1.3-1-1.7s-0.9-0.8-1.4-0.9
			c-0.5-0.2-1.1-0.3-1.6-0.3c-0.8,0-1.5,0.2-2.2,0.7s-1.3,0.9-1.8,1.5v15.7h-3.6V203.8z"/>
		<path class="st19" d="M613.5,213.3c0,0.9-0.2,1.6-0.5,2.3c-0.4,0.7-0.8,1.2-1.5,1.7c-0.6,0.5-1.4,0.8-2.2,1
			c-0.9,0.2-1.8,0.3-2.8,0.3c-1.6,0-2.9-0.1-3.9-0.4s-1.8-0.7-2.3-1.2c-0.5-0.5-0.8-1.1-0.9-1.8c-0.1-0.7-0.1-1.5-0.1-2.5h0.8
			c0.2,1.3,0.8,2.4,1.7,3.2c0.9,0.8,2.2,1.2,3.9,1.2c1.5,0,2.6-0.3,3.3-0.8s1.1-1.2,1.1-2.1c0-0.8-0.3-1.5-0.9-2.1
			c-0.6-0.6-1.5-1.1-2.7-1.6l-2.4-1c-1.5-0.6-2.7-1.4-3.5-2.2c-0.8-0.9-1.3-2-1.3-3.3c0-0.9,0.2-1.6,0.5-2.3s0.8-1.2,1.4-1.7
			s1.3-0.8,2.1-1c0.8-0.2,1.7-0.3,2.6-0.3c1.5,0,2.8,0.1,3.8,0.4c1,0.3,1.7,0.7,2.2,1.2c0.5,0.5,0.8,1.1,0.9,1.8s0.1,1.5,0.1,2.5
			h-0.8c-0.2-1.3-0.8-2.4-1.7-3.2c-0.9-0.8-2.1-1.2-3.7-1.2c-1.3,0-2.3,0.3-3,0.8c-0.7,0.5-1,1.2-1,2.1c0,0.7,0.3,1.4,0.8,2
			s1.3,1.1,2.4,1.5l2.4,1c1.7,0.7,3,1.5,3.9,2.3C613,210.7,613.5,211.9,613.5,213.3z"/>
		<path class="st19" d="M622.5,218.2h-3.6v-14.4c0-1.2-0.2-2.2-0.5-3c-0.3-0.8-1.1-1.1-2.3-1.1h-0.8v-0.8h3.6c0.7,0,1.3,0.1,1.7,0.2
			c0.5,0.1,0.8,0.4,1.1,0.7c0.3,0.4,0.5,0.9,0.6,1.5c0.1,0.6,0.2,1.5,0.2,2.5V218.2z M622.3,194.6c0,0.6-0.2,1-0.5,1.4
			c-0.3,0.3-0.8,0.5-1.3,0.5c-0.6,0-1.1-0.3-1.6-0.8c-0.4-0.5-0.7-1.1-0.7-1.8c0-0.6,0.2-1,0.5-1.4c0.3-0.3,0.8-0.5,1.3-0.5
			c0.6,0,1.1,0.3,1.6,0.8S622.3,193.9,622.3,194.6z"/>
		<path class="st19" d="M627.8,204.6c0-1.2,0.2-2.2,0.6-3c0.4-0.8,0.9-1.4,1.6-1.9s1.5-0.8,2.4-1c0.9-0.2,1.9-0.3,3-0.3h7.4v1
			l-2.6,0.4v0.2c0.8,0.4,1.5,1,2,1.8s0.8,1.7,0.8,2.7c0,1.2-0.2,2.2-0.6,3c-0.4,0.8-0.9,1.4-1.6,1.9c-0.7,0.5-1.5,0.8-2.4,1
			c-0.9,0.2-1.9,0.3-3,0.3c-2.8,0-4.2,0.5-4.2,1.4s1.4,1.4,4.2,1.4c1.2,0,2.3,0.1,3.4,0.4c1.1,0.2,2,0.6,2.8,1.1
			c0.8,0.5,1.4,1.2,1.9,2c0.5,0.8,0.7,1.8,0.7,2.9c0,1.2-0.2,2.2-0.7,3c-0.5,0.8-1.1,1.5-1.9,2c-0.8,0.5-1.7,0.9-2.8,1.1
			c-1.1,0.2-2.2,0.3-3.5,0.3c-1.3,0-2.4-0.1-3.5-0.3c-1.1-0.2-2-0.6-2.8-1.1c-0.8-0.5-1.4-1.2-1.9-2c-0.5-0.8-0.7-1.8-0.7-3
			c0-1.3,0.4-2.5,1.3-3.4c0.9-0.9,1.9-1.6,3.1-2c-0.4-0.2-0.8-0.5-1.1-0.9c-0.3-0.4-0.5-0.9-0.5-1.5s0.2-1.1,0.5-1.4
			c0.3-0.3,0.6-0.6,0.9-0.8c-0.8-0.4-1.5-1.1-2.1-2C628.1,207.1,627.8,206,627.8,204.6z M633.6,215.1c-1,0.4-1.8,1-2.5,1.8
			c-0.6,0.8-0.9,1.8-0.9,3.2c0,1.6,0.5,2.8,1.5,3.6c1,0.8,2.2,1.1,3.7,1.1s2.8-0.4,3.7-1.1c1-0.8,1.5-2,1.5-3.6
			c0-2.7-1.6-4.3-4.8-4.7L633.6,215.1z M639.4,204.6c0-1.6-0.4-2.8-1.2-3.6c-0.8-0.8-1.7-1.1-2.8-1.1c-0.6,0-1.1,0.1-1.6,0.2
			c-0.5,0.2-0.9,0.4-1.3,0.8c-0.4,0.4-0.6,0.9-0.9,1.5s-0.3,1.3-0.3,2.2c0,0.9,0.1,1.6,0.3,2.2c0.2,0.6,0.5,1.1,0.9,1.5
			c0.4,0.4,0.8,0.6,1.3,0.8c0.5,0.2,1,0.2,1.6,0.2s1.1-0.1,1.6-0.2c0.5-0.2,0.9-0.4,1.3-0.8c0.4-0.4,0.6-0.9,0.9-1.5
			C639.3,206.3,639.4,205.5,639.4,204.6z"/>
		<path class="st19" d="M652.1,200.5c0.5-0.5,1.2-1,2.1-1.4c0.9-0.4,1.9-0.6,3.1-0.6c0.9,0,1.7,0.1,2.5,0.3c0.8,0.2,1.5,0.6,2.2,1.2
			c0.6,0.6,1.2,1.3,1.5,2.3c0.4,1,0.6,2.2,0.6,3.7v12.3h-3.6v-12.3c0-1-0.1-1.9-0.4-2.6c-0.3-0.7-0.6-1.3-1-1.7s-0.9-0.8-1.4-0.9
			c-0.5-0.2-1.1-0.3-1.6-0.3c-0.8,0-1.5,0.2-2.2,0.7s-1.3,0.9-1.8,1.5v15.7h-3.6V196c0-1.2-0.2-2.2-0.5-3c-0.3-0.8-1.1-1.1-2.3-1.1
			h-0.8v-0.8h3.6c0.7,0,1.3,0.1,1.7,0.2c0.5,0.1,0.8,0.4,1.1,0.7c0.3,0.4,0.5,0.9,0.6,1.5s0.2,1.5,0.2,2.5V200.5z"/>
		<path class="st19" d="M670.7,200.5h-2.8v-1.6h2.8v-3.7l2-2.5h1.6v6.2h4.8v1.6h-4.8v12.7c0,2.5,0.9,3.7,2.8,3.7
			c0.7,0,1.3-0.1,1.7-0.2c0.5-0.2,0.9-0.4,1.3-0.6l0.4,0.8c-0.2,0.2-0.5,0.3-0.7,0.5c-0.3,0.2-0.6,0.4-1,0.5
			c-0.4,0.2-0.9,0.3-1.4,0.4s-1.1,0.2-1.8,0.2c-1.4,0-2.6-0.4-3.5-1.3c-0.9-0.8-1.3-2.2-1.3-4.1V200.5z"/>
		<path class="st19" d="M697,213.3c0,0.9-0.2,1.6-0.5,2.3c-0.4,0.7-0.8,1.2-1.5,1.7c-0.6,0.5-1.4,0.8-2.2,1
			c-0.9,0.2-1.8,0.3-2.8,0.3c-1.6,0-2.9-0.1-3.9-0.4s-1.8-0.7-2.3-1.2c-0.5-0.5-0.8-1.1-0.9-1.8c-0.1-0.7-0.1-1.5-0.1-2.5h0.8
			c0.2,1.3,0.8,2.4,1.7,3.2c0.9,0.8,2.2,1.2,3.9,1.2c1.5,0,2.6-0.3,3.3-0.8s1.1-1.2,1.1-2.1c0-0.8-0.3-1.5-0.9-2.1
			c-0.6-0.6-1.5-1.1-2.7-1.6l-2.4-1c-1.5-0.6-2.7-1.4-3.5-2.2c-0.8-0.9-1.3-2-1.3-3.3c0-0.9,0.2-1.6,0.5-2.3s0.8-1.2,1.4-1.7
			s1.3-0.8,2.1-1c0.8-0.2,1.7-0.3,2.6-0.3c1.5,0,2.8,0.1,3.8,0.4c1,0.3,1.7,0.7,2.2,1.2c0.5,0.5,0.8,1.1,0.9,1.8s0.1,1.5,0.1,2.5
			h-0.8c-0.2-1.3-0.8-2.4-1.7-3.2c-0.9-0.8-2.1-1.2-3.7-1.2c-1.3,0-2.3,0.3-3,0.8c-0.7,0.5-1,1.2-1,2.1c0,0.7,0.3,1.4,0.8,2
			s1.3,1.1,2.4,1.5l2.4,1c1.7,0.7,3,1.5,3.9,2.3C696.6,210.7,697,211.9,697,213.3z"/>
		<path class="st19" d="M713,200.5h-2.8v-1.6h2.8v-3.7l2-2.5h1.6v6.2h4.8v1.6h-4.8v12.7c0,2.5,0.9,3.7,2.8,3.7
			c0.7,0,1.3-0.1,1.7-0.2c0.5-0.2,0.9-0.4,1.3-0.6l0.4,0.8c-0.2,0.2-0.5,0.3-0.7,0.5c-0.3,0.2-0.6,0.4-1,0.5
			c-0.4,0.2-0.9,0.3-1.4,0.4s-1.1,0.2-1.8,0.2c-1.4,0-2.6-0.4-3.5-1.3c-0.9-0.8-1.3-2.2-1.3-4.1V200.5z"/>
		<path class="st19" d="M725,208.6c0-1.4,0.2-2.7,0.6-3.9c0.4-1.2,1-2.3,1.7-3.2c0.8-0.9,1.7-1.6,2.8-2.2c1.1-0.5,2.3-0.8,3.7-0.8
			c1.4,0,2.6,0.3,3.7,0.8s2,1.3,2.8,2.2c0.8,0.9,1.3,2,1.7,3.2c0.4,1.2,0.6,2.5,0.6,3.9c0,1.4-0.2,2.7-0.6,3.9
			c-0.4,1.2-1,2.3-1.7,3.2s-1.7,1.6-2.8,2.2c-1.1,0.5-2.3,0.8-3.7,0.8c-1.4,0-2.7-0.3-3.7-0.8c-1.1-0.5-2-1.3-2.8-2.2
			c-0.8-0.9-1.3-2-1.7-3.2S725,209.9,725,208.6z M738.8,208.6c0-1.2-0.1-2.3-0.4-3.3c-0.2-1-0.6-1.9-1-2.7c-0.4-0.8-1-1.3-1.6-1.8
			c-0.6-0.4-1.3-0.7-2-0.7c-0.7,0-1.4,0.2-2,0.7c-0.6,0.4-1.1,1-1.6,1.8c-0.4,0.8-0.8,1.6-1,2.7c-0.2,1-0.4,2.1-0.4,3.3
			s0.1,2.3,0.4,3.3c0.2,1,0.6,1.9,1,2.7c0.4,0.8,1,1.3,1.6,1.8c0.6,0.4,1.3,0.7,2,0.7c0.7,0,1.4-0.2,2-0.7c0.6-0.4,1.1-1,1.6-1.8
			c0.4-0.8,0.8-1.6,1-2.7C738.6,210.8,738.8,209.7,738.8,208.6z"/>
		<path class="st19" d="M758.6,191.1h3.6v22.2c0,1.2,0.2,2.2,0.5,3c0.3,0.8,1.1,1.1,2.3,1.1h0.8v0.8h-3.6c-0.7,0-1.3-0.1-1.7-0.2
			c-0.5-0.1-0.8-0.4-1.1-0.7c-0.3-0.4-0.5-0.9-0.6-1.5c-0.1-0.6-0.2-1.5-0.2-2.5V191.1z"/>
		<path class="st19" d="M770.2,203.8c0-1.2-0.2-2.2-0.5-3c-0.3-0.8-1.1-1.1-2.3-1.1h-0.8v-0.8h3.6c1,0,1.8,0.1,2.3,0.4
			c0.5,0.3,0.9,0.7,1.1,1.2h0.2c0.5-0.5,1.2-1,2.1-1.4c0.9-0.4,1.9-0.6,3.1-0.6c0.9,0,1.7,0.1,2.5,0.3c0.8,0.2,1.5,0.6,2.2,1.2
			c0.6,0.6,1.2,1.3,1.5,2.3c0.4,1,0.6,2.2,0.6,3.7v12.3h-3.6v-12.3c0-1-0.1-1.9-0.4-2.6c-0.3-0.7-0.6-1.3-1-1.7s-0.9-0.8-1.4-0.9
			c-0.5-0.2-1.1-0.3-1.6-0.3c-0.8,0-1.5,0.2-2.2,0.7s-1.3,0.9-1.8,1.5v15.7h-3.6V203.8z"/>
		<path class="st19" d="M792.2,203.8c0-1.2-0.2-2.2-0.5-3c-0.3-0.8-1.1-1.1-2.3-1.1h-0.8v-0.8h3.6c1,0,1.8,0.1,2.3,0.4
			c0.5,0.3,0.9,0.7,1.1,1.2h0.2c0.5-0.5,1.2-1,2.1-1.4c0.9-0.4,1.9-0.6,3.1-0.6c0.9,0,1.7,0.1,2.5,0.3c0.8,0.2,1.5,0.6,2.2,1.2
			c0.6,0.6,1.2,1.3,1.5,2.3c0.4,1,0.6,2.2,0.6,3.7v12.3h-3.6v-12.3c0-1-0.1-1.9-0.4-2.6c-0.3-0.7-0.6-1.3-1-1.7s-0.9-0.8-1.4-0.9
			c-0.5-0.2-1.1-0.3-1.6-0.3c-0.8,0-1.5,0.2-2.2,0.7s-1.3,0.9-1.8,1.5v15.7h-3.6V203.8z"/>
		<path class="st19" d="M812.6,208.6c0-1.4,0.2-2.7,0.6-3.9c0.4-1.2,1-2.3,1.7-3.2c0.8-0.9,1.7-1.6,2.8-2.2c1.1-0.5,2.3-0.8,3.7-0.8
			c1.4,0,2.6,0.3,3.7,0.8s2,1.3,2.8,2.2c0.8,0.9,1.3,2,1.7,3.2c0.4,1.2,0.6,2.5,0.6,3.9c0,1.4-0.2,2.7-0.6,3.9
			c-0.4,1.2-1,2.3-1.7,3.2s-1.7,1.6-2.8,2.2c-1.1,0.5-2.3,0.8-3.7,0.8c-1.4,0-2.7-0.3-3.7-0.8c-1.1-0.5-2-1.3-2.8-2.2
			c-0.8-0.9-1.3-2-1.7-3.2S812.6,209.9,812.6,208.6z M826.4,208.6c0-1.2-0.1-2.3-0.4-3.3c-0.2-1-0.6-1.9-1-2.7
			c-0.4-0.8-1-1.3-1.6-1.8c-0.6-0.4-1.3-0.7-2-0.7c-0.7,0-1.4,0.2-2,0.7c-0.6,0.4-1.1,1-1.6,1.8c-0.4,0.8-0.8,1.6-1,2.7
			c-0.2,1-0.4,2.1-0.4,3.3s0.1,2.3,0.4,3.3c0.2,1,0.6,1.9,1,2.7c0.4,0.8,1,1.3,1.6,1.8c0.6,0.4,1.3,0.7,2,0.7c0.7,0,1.4-0.2,2-0.7
			c0.6-0.4,1.1-1,1.6-1.8c0.4-0.8,0.8-1.6,1-2.7C826.3,210.8,826.4,209.7,826.4,208.6z"/>
		<path class="st19" d="M843.4,212.5l5.6-13.6h2l-8.2,19.7H842l-6.2-15c-0.3-0.8-0.6-1.4-0.9-1.9c-0.3-0.5-0.6-0.9-0.9-1.3
			c-0.3-0.3-0.7-0.6-1-0.7c-0.4-0.2-0.8-0.3-1.3-0.3v-0.8c0.1,0,0.3,0,0.6,0c0.3,0,0.6,0,0.7,0c0.6,0,1.2,0.1,1.8,0.2
			c0.6,0.1,1.2,0.4,1.8,0.8c0.6,0.4,1.1,0.9,1.7,1.6c0.5,0.7,1,1.5,1.5,2.6L843.4,212.5z"/>
		<path class="st19" d="M866.6,218.2l-1.4-1.8H865c-0.4,0.5-1.1,1-2,1.5c-0.9,0.5-2.1,0.7-3.6,0.7c-0.6,0-1.2-0.1-1.8-0.3
			s-1.3-0.5-1.9-0.9c-0.6-0.4-1.1-1-1.5-1.8c-0.4-0.7-0.6-1.7-0.6-2.8s0.3-2.1,0.8-2.8s1.3-1.3,2.2-1.8c0.9-0.4,2-0.7,3.2-0.9
			c1.2-0.2,2.5-0.3,3.9-0.3h1.2c0-1.4-0.1-2.6-0.3-3.5c-0.2-0.9-0.5-1.6-0.9-2.1c-0.4-0.5-0.8-0.9-1.3-1c-0.5-0.2-1.1-0.3-1.7-0.3
			c-1.1,0-2.1,0.2-2.8,0.7c-0.8,0.5-1.3,1.4-1.6,2.8h-1.8c0-0.7,0-1.4,0.1-2s0.4-1.2,0.9-1.7c0.2-0.2,0.6-0.5,1-0.7
			c0.4-0.2,0.9-0.3,1.5-0.5c0.5-0.1,1.1-0.2,1.7-0.2s1.2-0.1,1.8-0.1c0.9,0,1.8,0.1,2.6,0.3c0.8,0.2,1.6,0.6,2.2,1.2
			c0.7,0.6,1.2,1.5,1.6,2.6c0.4,1.1,0.6,2.6,0.6,4.5v11.1H866.6z M865,208.8h-1.2c-2,0-3.6,0.4-4.7,1.1s-1.7,1.7-1.7,3
			c0,0.7,0.1,1.2,0.3,1.7c0.2,0.5,0.5,0.9,0.8,1.2c0.3,0.3,0.7,0.6,1.2,0.7c0.5,0.2,0.9,0.2,1.4,0.2c1,0,1.8-0.3,2.3-0.8
			c0.6-0.5,1.1-1.1,1.5-1.7V208.8z"/>
		<path class="st19" d="M875.2,200.5h-2.8v-1.6h2.8v-3.7l2-2.5h1.6v6.2h4.8v1.6h-4.8v12.7c0,2.5,0.9,3.7,2.8,3.7
			c0.7,0,1.3-0.1,1.7-0.2c0.5-0.2,0.9-0.4,1.3-0.6l0.4,0.8c-0.2,0.2-0.5,0.3-0.7,0.5c-0.3,0.2-0.6,0.4-1,0.5
			c-0.4,0.2-0.9,0.3-1.4,0.4s-1.1,0.2-1.8,0.2c-1.4,0-2.6-0.4-3.5-1.3c-0.9-0.8-1.3-2.2-1.3-4.1V200.5z"/>
		<path class="st19" d="M892.5,218.2h-3.6v-14.4c0-1.2-0.2-2.2-0.5-3c-0.3-0.8-1.1-1.1-2.3-1.1h-0.8v-0.8h3.6c0.7,0,1.3,0.1,1.7,0.2
			c0.5,0.1,0.8,0.4,1.1,0.7c0.3,0.4,0.5,0.9,0.6,1.5c0.1,0.6,0.2,1.5,0.2,2.5V218.2z M892.2,194.6c0,0.6-0.2,1-0.5,1.4
			c-0.3,0.3-0.8,0.5-1.3,0.5c-0.6,0-1.1-0.3-1.6-0.8c-0.4-0.5-0.7-1.1-0.7-1.8c0-0.6,0.2-1,0.5-1.4c0.3-0.3,0.8-0.5,1.3-0.5
			c0.6,0,1.1,0.3,1.6,0.8S892.2,193.9,892.2,194.6z"/>
		<path class="st19" d="M907.1,212.5l5.6-13.6h2l-8.2,19.7h-0.8l-6.2-15c-0.3-0.8-0.6-1.4-0.9-1.9c-0.3-0.5-0.6-0.9-0.9-1.3
			c-0.3-0.3-0.7-0.6-1-0.7c-0.4-0.2-0.8-0.3-1.3-0.3v-0.8c0.1,0,0.3,0,0.6,0c0.3,0,0.6,0,0.7,0c0.6,0,1.2,0.1,1.8,0.2
			c0.6,0.1,1.2,0.4,1.8,0.8c0.6,0.4,1.1,0.9,1.7,1.6c0.5,0.7,1,1.5,1.5,2.6L907.1,212.5z"/>
		<path class="st19" d="M933.1,209.2H921c0,1.1,0.1,2.2,0.4,3.1c0.2,1,0.6,1.8,1.1,2.5c0.5,0.7,1,1.2,1.7,1.6
			c0.7,0.4,1.4,0.6,2.3,0.6c1.3,0,2.4-0.3,3.3-0.9c0.9-0.6,1.6-1.4,2.3-2.4l0.8,0.6c-0.9,1.6-2,2.7-3.1,3.3c-1.2,0.7-2.5,1-4.1,1
			c-1.4,0-2.6-0.3-3.7-0.8c-1-0.5-1.9-1.3-2.6-2.2c-0.7-0.9-1.2-2-1.6-3.2c-0.3-1.2-0.5-2.5-0.5-3.9c0-1.4,0.2-2.7,0.5-3.9
			c0.4-1.2,0.9-2.3,1.6-3.2c0.7-0.9,1.5-1.6,2.5-2.2c1-0.5,2.1-0.8,3.4-0.8c2.7,0,4.7,0.8,6,2.3c1.3,1.6,2,3.8,2,6.7L933.1,209.2z
			 M929.4,207.5c0-2.4-0.3-4.2-1-5.5c-0.7-1.3-1.7-1.9-3.2-1.9c-0.6,0-1.2,0.2-1.7,0.6c-0.5,0.4-0.9,0.9-1.3,1.5s-0.7,1.4-0.9,2.3
			c-0.2,0.9-0.3,1.9-0.3,3H929.4z"/>
		<path class="st19" d="M965.1,211.3c0,1.2-0.2,2.2-0.6,3.1c-0.4,0.9-0.9,1.7-1.7,2.4s-1.6,1.2-2.6,1.5c-1,0.4-2.2,0.5-3.5,0.5
			c-1.1,0-2.2-0.1-3.3-0.3c-1.1-0.2-2.1-0.6-2.9-1c-0.9-0.4-1.6-1-2.1-1.6s-0.8-1.3-0.8-2.1v-4.4h0.8c0.4,2.8,1.3,4.8,2.6,6
			s3.1,1.8,5.3,1.8c0.7,0,1.3-0.1,2-0.3c0.6-0.2,1.2-0.4,1.6-0.8c0.5-0.4,0.9-0.8,1.2-1.3s0.4-1.1,0.4-1.8c0-1.2-0.4-2.2-1.1-3.1
			c-0.7-0.8-1.8-1.7-3.3-2.6l-4.9-3c-1.7-1-2.9-2.1-3.6-3.2s-1.1-2.4-1.1-3.9c0-1.1,0.2-2,0.6-2.9c0.4-0.8,0.9-1.6,1.6-2.2
			s1.5-1.1,2.4-1.4c0.9-0.3,2-0.5,3.2-0.5c1,0,2,0.1,3,0.3c1,0.2,2,0.5,2.8,1c0.8,0.4,1.5,0.9,2,1.6s0.8,1.3,0.8,2.1v4.4h-0.8
			c-0.5-2.8-1.3-4.7-2.6-5.9c-1.3-1.2-3-1.8-5.3-1.8c-0.6,0-1.2,0.1-1.7,0.3c-0.6,0.2-1,0.5-1.5,0.8c-0.4,0.4-0.8,0.8-1,1.3
			c-0.3,0.5-0.4,1.1-0.4,1.7c0,0.6,0.1,1.1,0.3,1.6s0.5,0.9,0.8,1.3c0.4,0.4,0.8,0.8,1.4,1.2c0.6,0.4,1.2,0.8,1.9,1.3l4.9,3
			c0.9,0.5,1.6,1,2.2,1.5s1.1,1,1.5,1.5s0.7,1.1,0.9,1.7S965.1,210.5,965.1,211.3z"/>
		<path class="st19" d="M969,208.6c0-1.4,0.2-2.7,0.6-3.9c0.4-1.2,1-2.3,1.7-3.2c0.8-0.9,1.7-1.6,2.8-2.2c1.1-0.5,2.3-0.8,3.7-0.8
			c1.4,0,2.6,0.3,3.7,0.8s2,1.3,2.8,2.2c0.8,0.9,1.3,2,1.7,3.2c0.4,1.2,0.6,2.5,0.6,3.9c0,1.4-0.2,2.7-0.6,3.9
			c-0.4,1.2-1,2.3-1.7,3.2s-1.7,1.6-2.8,2.2c-1.1,0.5-2.3,0.8-3.7,0.8c-1.4,0-2.7-0.3-3.7-0.8c-1.1-0.5-2-1.3-2.8-2.2
			c-0.8-0.9-1.3-2-1.7-3.2S969,209.9,969,208.6z M982.7,208.6c0-1.2-0.1-2.3-0.4-3.3c-0.2-1-0.6-1.9-1-2.7c-0.4-0.8-1-1.3-1.6-1.8
			c-0.6-0.4-1.3-0.7-2-0.7c-0.7,0-1.4,0.2-2,0.7c-0.6,0.4-1.1,1-1.6,1.8c-0.4,0.8-0.8,1.6-1,2.7c-0.2,1-0.4,2.1-0.4,3.3
			s0.1,2.3,0.4,3.3c0.2,1,0.6,1.9,1,2.7c0.4,0.8,1,1.3,1.6,1.8c0.6,0.4,1.3,0.7,2,0.7c0.7,0,1.4-0.2,2-0.7c0.6-0.4,1.1-1,1.6-1.8
			c0.4-0.8,0.8-1.6,1-2.7C982.6,210.8,982.7,209.7,982.7,208.6z"/>
		<path class="st19" d="M995.3,218.2h-3.6V196c0-1.2-0.2-2.2-0.5-3c-0.3-0.8-1.1-1.1-2.3-1.1h-0.8v-0.8h3.6c0.7,0,1.3,0.1,1.7,0.2
			c0.5,0.1,0.8,0.4,1.1,0.7c0.3,0.4,0.5,0.9,0.6,1.5c0.1,0.6,0.2,1.5,0.2,2.5V218.2z"/>
		<path class="st19" d="M1017.2,218.2h-2l-1.4-1.6h-0.2c-0.5,0.5-1.2,1-2.1,1.4c-0.9,0.4-1.9,0.6-3.1,0.6c-0.9,0-1.7-0.1-2.5-0.3
			c-0.8-0.2-1.5-0.6-2.2-1.2c-0.6-0.6-1.2-1.3-1.5-2.3c-0.4-1-0.6-2.2-0.6-3.7v-7.4c0-1.2-0.2-2.2-0.5-3c-0.3-0.8-1.1-1.1-2.3-1.1
			h-0.4v-0.8h3.2c0.7,0,1.3,0.1,1.7,0.2c0.5,0.1,0.8,0.4,1.1,0.7c0.3,0.4,0.5,0.9,0.6,1.5c0.1,0.6,0.2,1.5,0.2,2.5v7.4
			c0,1,0.1,1.9,0.4,2.6c0.3,0.7,0.6,1.3,1,1.7c0.4,0.4,0.9,0.8,1.4,0.9c0.5,0.2,1.1,0.3,1.6,0.3c0.8,0,1.5-0.2,2.2-0.7
			s1.3-0.9,1.8-1.5v-15.7h3.6V218.2z"/>
		<path class="st19" d="M1024,200.5h-2.8v-1.6h2.8v-3.7l2-2.5h1.6v6.2h4.8v1.6h-4.8v12.7c0,2.5,0.9,3.7,2.8,3.7
			c0.7,0,1.3-0.1,1.7-0.2c0.5-0.2,0.9-0.4,1.3-0.6l0.4,0.8c-0.2,0.2-0.5,0.3-0.7,0.5c-0.3,0.2-0.6,0.4-1,0.5
			c-0.4,0.2-0.9,0.3-1.4,0.4s-1.1,0.2-1.8,0.2c-1.4,0-2.6-0.4-3.5-1.3c-0.9-0.8-1.3-2.2-1.3-4.1V200.5z"/>
		<path class="st19" d="M1041.3,218.2h-3.6v-14.4c0-1.2-0.2-2.2-0.5-3c-0.3-0.8-1.1-1.1-2.3-1.1h-0.8v-0.8h3.6
			c0.7,0,1.3,0.1,1.7,0.2c0.5,0.1,0.8,0.4,1.1,0.7c0.3,0.4,0.5,0.9,0.6,1.5c0.1,0.6,0.2,1.5,0.2,2.5V218.2z M1041,194.6
			c0,0.6-0.2,1-0.5,1.4c-0.3,0.3-0.8,0.5-1.3,0.5c-0.6,0-1.1-0.3-1.6-0.8c-0.4-0.5-0.7-1.1-0.7-1.8c0-0.6,0.2-1,0.5-1.4
			c0.3-0.3,0.8-0.5,1.3-0.5c0.6,0,1.1,0.3,1.6,0.8S1041,193.9,1041,194.6z"/>
		<path class="st19" d="M1046.1,208.6c0-1.4,0.2-2.7,0.6-3.9c0.4-1.2,1-2.3,1.7-3.2c0.8-0.9,1.7-1.6,2.8-2.2
			c1.1-0.5,2.3-0.8,3.7-0.8c1.4,0,2.6,0.3,3.7,0.8s2,1.3,2.8,2.2c0.8,0.9,1.3,2,1.7,3.2c0.4,1.2,0.6,2.5,0.6,3.9
			c0,1.4-0.2,2.7-0.6,3.9c-0.4,1.2-1,2.3-1.7,3.2s-1.7,1.6-2.8,2.2c-1.1,0.5-2.3,0.8-3.7,0.8c-1.4,0-2.7-0.3-3.7-0.8
			c-1.1-0.5-2-1.3-2.8-2.2c-0.8-0.9-1.3-2-1.7-3.2S1046.1,209.9,1046.1,208.6z M1059.9,208.6c0-1.2-0.1-2.3-0.4-3.3
			c-0.2-1-0.6-1.9-1-2.7c-0.4-0.8-1-1.3-1.6-1.8c-0.6-0.4-1.3-0.7-2-0.7c-0.7,0-1.4,0.2-2,0.7c-0.6,0.4-1.1,1-1.6,1.8
			c-0.4,0.8-0.8,1.6-1,2.7c-0.2,1-0.4,2.1-0.4,3.3s0.1,2.3,0.4,3.3c0.2,1,0.6,1.9,1,2.7c0.4,0.8,1,1.3,1.6,1.8
			c0.6,0.4,1.3,0.7,2,0.7c0.7,0,1.4-0.2,2-0.7c0.6-0.4,1.1-1,1.6-1.8c0.4-0.8,0.8-1.6,1-2.7C1059.8,210.8,1059.9,209.7,1059.9,208.6
			z"/>
		<path class="st19" d="M1069.3,203.8c0-1.2-0.2-2.2-0.5-3c-0.3-0.8-1.1-1.1-2.3-1.1h-0.8v-0.8h3.6c1,0,1.8,0.1,2.3,0.4
			c0.5,0.3,0.9,0.7,1.1,1.2h0.2c0.5-0.5,1.2-1,2.1-1.4c0.9-0.4,1.9-0.6,3.1-0.6c0.9,0,1.7,0.1,2.5,0.3c0.8,0.2,1.5,0.6,2.2,1.2
			c0.6,0.6,1.2,1.3,1.5,2.3c0.4,1,0.6,2.2,0.6,3.7v12.3h-3.6v-12.3c0-1-0.1-1.9-0.4-2.6c-0.3-0.7-0.6-1.3-1-1.7s-0.9-0.8-1.4-0.9
			c-0.5-0.2-1.1-0.3-1.6-0.3c-0.8,0-1.5,0.2-2.2,0.7s-1.3,0.9-1.8,1.5v15.7h-3.6V203.8z"/>
		<path class="st19" d="M1104.1,213.3c0,0.9-0.2,1.6-0.5,2.3c-0.4,0.7-0.8,1.2-1.5,1.7c-0.6,0.5-1.4,0.8-2.2,1
			c-0.9,0.2-1.8,0.3-2.8,0.3c-1.6,0-2.9-0.1-3.9-0.4s-1.8-0.7-2.3-1.2c-0.5-0.5-0.8-1.1-0.9-1.8c-0.1-0.7-0.1-1.5-0.1-2.5h0.8
			c0.2,1.3,0.8,2.4,1.7,3.2c0.9,0.8,2.2,1.2,3.9,1.2c1.5,0,2.6-0.3,3.3-0.8s1.1-1.2,1.1-2.1c0-0.8-0.3-1.5-0.9-2.1
			c-0.6-0.6-1.5-1.1-2.7-1.6l-2.4-1c-1.5-0.6-2.7-1.4-3.5-2.2c-0.8-0.9-1.3-2-1.3-3.3c0-0.9,0.2-1.6,0.5-2.3s0.8-1.2,1.4-1.7
			s1.3-0.8,2.1-1c0.8-0.2,1.7-0.3,2.6-0.3c1.5,0,2.8,0.1,3.8,0.4c1,0.3,1.7,0.7,2.2,1.2c0.5,0.5,0.8,1.1,0.9,1.8s0.1,1.5,0.1,2.5
			h-0.8c-0.2-1.3-0.8-2.4-1.7-3.2c-0.9-0.8-2.1-1.2-3.7-1.2c-1.3,0-2.3,0.3-3,0.8c-0.7,0.5-1,1.2-1,2.1c0,0.7,0.3,1.4,0.8,2
			s1.3,1.1,2.4,1.5l2.4,1c1.7,0.7,3,1.5,3.9,2.3C1103.6,210.7,1104.1,211.9,1104.1,213.3z"/>
	</g>
</g>
</svg>
